<mxfile host="65bd71144e">
    <diagram id="nekuu61ycPgMc9iMY7xG" name="Página-1">
        <mxGraphModel dx="810" dy="636" grid="1" gridSize="10" guides="1" tooltips="1" connect="1" arrows="1" fold="1" page="1" pageScale="1" pageWidth="827" pageHeight="1169" math="0" shadow="0">
            <root>
                <mxCell id="0"/>
                <mxCell id="1" parent="0"/>
                <mxCell id="10" value="Vuelo" style="swimlane;fontStyle=1;align=center;verticalAlign=top;childLayout=stackLayout;horizontal=1;startSize=26;horizontalStack=0;resizeParent=1;resizeParentMax=0;resizeLast=0;collapsible=1;marginBottom=0;fillColor=#60a917;fontColor=#ffffff;strokeColor=#2D7600;" vertex="1" parent="1">
                    <mxGeometry x="50" y="17" width="160" height="186" as="geometry"/>
                </mxCell>
                <mxCell id="12" value="" style="line;strokeWidth=1;fillColor=none;align=left;verticalAlign=middle;spacingTop=-1;spacingLeft=3;spacingRight=3;rotatable=0;labelPosition=right;points=[];portConstraint=eastwest;strokeColor=inherit;" vertex="1" parent="10">
                    <mxGeometry y="26" width="160" height="8" as="geometry"/>
                </mxCell>
                <mxCell id="11" value="tipoRuta: String&#10;terminal: String&#10;puertaEmbarque: String&#10;fechaDespegue: DateTime&#10;fechaAterrizaje: DateTime&#10;numPasajeros:int &#10;estado: String&#10;" style="text;strokeColor=#2D7600;fillColor=#60a917;align=left;verticalAlign=top;spacingLeft=4;spacingRight=4;overflow=hidden;rotatable=0;points=[[0,0.5],[1,0.5]];portConstraint=eastwest;fontColor=#ffffff;" vertex="1" parent="10">
                    <mxGeometry y="34" width="160" height="126" as="geometry"/>
                </mxCell>
                <mxCell id="13" value="Public Vuelo( )" style="text;strokeColor=#2D7600;fillColor=#60a917;align=left;verticalAlign=top;spacingLeft=4;spacingRight=4;overflow=hidden;rotatable=0;points=[[0,0.5],[1,0.5]];portConstraint=eastwest;fontColor=#ffffff;" vertex="1" parent="10">
                    <mxGeometry y="160" width="160" height="26" as="geometry"/>
                </mxCell>
                <mxCell id="47" value="" style="edgeStyle=none;html=1;strokeColor=#4D4D4D;startArrow=none;startFill=0;endArrow=diamondThin;endFill=1;entryX=0;entryY=0.5;entryDx=0;entryDy=0;" edge="1" parent="1" source="14" target="31">
                    <mxGeometry relative="1" as="geometry"/>
                </mxCell>
                <mxCell id="48" style="edgeStyle=none;html=1;strokeColor=#4D4D4D;startArrow=none;startFill=0;endArrow=diamondThin;endFill=1;" edge="1" parent="1" source="14">
                    <mxGeometry relative="1" as="geometry">
                        <mxPoint x="120" y="210" as="targetPoint"/>
                        <Array as="points">
                            <mxPoint x="120" y="310"/>
                        </Array>
                    </mxGeometry>
                </mxCell>
                <mxCell id="14" value="Categoria Vuelo" style="swimlane;fontStyle=1;align=center;verticalAlign=top;childLayout=stackLayout;horizontal=1;startSize=26;horizontalStack=0;resizeParent=1;resizeParentMax=0;resizeLast=0;collapsible=1;marginBottom=0;fillColor=#60a917;fontColor=#ffffff;strokeColor=#2D7600;" vertex="1" parent="1">
                    <mxGeometry x="190" y="260" width="160" height="96" as="geometry"/>
                </mxCell>
                <mxCell id="16" value="" style="line;strokeWidth=1;fillColor=none;align=left;verticalAlign=middle;spacingTop=-1;spacingLeft=3;spacingRight=3;rotatable=0;labelPosition=right;points=[];portConstraint=eastwest;strokeColor=inherit;" vertex="1" parent="14">
                    <mxGeometry y="26" width="160" height="8" as="geometry"/>
                </mxCell>
                <mxCell id="15" value="nombre: String" style="text;strokeColor=#2D7600;fillColor=#60a917;align=left;verticalAlign=top;spacingLeft=4;spacingRight=4;overflow=hidden;rotatable=0;points=[[0,0.5],[1,0.5]];portConstraint=eastwest;fontColor=#ffffff;" vertex="1" parent="14">
                    <mxGeometry y="34" width="160" height="36" as="geometry"/>
                </mxCell>
                <mxCell id="17" value="Public categoriaVuelo( )" style="text;strokeColor=#2D7600;fillColor=#60a917;align=left;verticalAlign=top;spacingLeft=4;spacingRight=4;overflow=hidden;rotatable=0;points=[[0,0.5],[1,0.5]];portConstraint=eastwest;fontColor=#ffffff;" vertex="1" parent="14">
                    <mxGeometry y="70" width="160" height="26" as="geometry"/>
                </mxCell>
                <mxCell id="51" style="edgeStyle=none;html=1;entryX=1;entryY=0;entryDx=0;entryDy=0;strokeColor=#4D4D4D;startArrow=none;startFill=0;endArrow=diamondThin;endFill=1;exitX=0.181;exitY=0.009;exitDx=0;exitDy=0;exitPerimeter=0;" edge="1" parent="1" source="18" target="10">
                    <mxGeometry relative="1" as="geometry">
                        <Array as="points">
                            <mxPoint x="610" y="17"/>
                        </Array>
                    </mxGeometry>
                </mxCell>
                <mxCell id="57" style="edgeStyle=none;html=1;strokeColor=#FFFFFF;startArrow=none;startFill=0;endArrow=none;endFill=0;entryX=0.75;entryY=1;entryDx=0;entryDy=0;" edge="1" parent="1" target="34">
                    <mxGeometry relative="1" as="geometry">
                        <mxPoint x="220" y="550" as="targetPoint"/>
                        <mxPoint x="740" y="130" as="sourcePoint"/>
                        <Array as="points">
                            <mxPoint x="800" y="130"/>
                            <mxPoint x="800" y="570"/>
                            <mxPoint x="510" y="570"/>
                            <mxPoint x="200" y="570"/>
                        </Array>
                    </mxGeometry>
                </mxCell>
                <mxCell id="18" value="Torre" style="swimlane;fontStyle=1;align=center;verticalAlign=top;childLayout=stackLayout;horizontal=1;startSize=26;horizontalStack=0;resizeParent=1;resizeParentMax=0;resizeLast=0;collapsible=1;marginBottom=0;fillColor=#60a917;fontColor=#ffffff;strokeColor=#2D7600;" vertex="1" parent="1">
                    <mxGeometry x="580" y="45" width="160" height="150" as="geometry"/>
                </mxCell>
                <mxCell id="20" value="" style="line;strokeWidth=1;fillColor=none;align=left;verticalAlign=middle;spacingTop=-1;spacingLeft=3;spacingRight=3;rotatable=0;labelPosition=right;points=[];portConstraint=eastwest;strokeColor=inherit;" vertex="1" parent="18">
                    <mxGeometry y="26" width="160" height="8" as="geometry"/>
                </mxCell>
                <mxCell id="19" value="numIdentificacion: int&#10;Correo: String&#10;telefonmo: String" style="text;strokeColor=#2D7600;fillColor=#60a917;align=left;verticalAlign=top;spacingLeft=4;spacingRight=4;overflow=hidden;rotatable=0;points=[[0,0.5],[1,0.5]];portConstraint=eastwest;fontColor=#ffffff;" vertex="1" parent="18">
                    <mxGeometry y="34" width="160" height="66" as="geometry"/>
                </mxCell>
                <mxCell id="21" value="Public Torre ( )&#10;verVuelos( )&#10;" style="text;strokeColor=#2D7600;fillColor=#60a917;align=left;verticalAlign=top;spacingLeft=4;spacingRight=4;overflow=hidden;rotatable=0;points=[[0,0.5],[1,0.5]];portConstraint=eastwest;fontColor=#ffffff;" vertex="1" parent="18">
                    <mxGeometry y="100" width="160" height="50" as="geometry"/>
                </mxCell>
                <mxCell id="56" style="edgeStyle=none;html=1;strokeColor=#FFFFFF;startArrow=none;startFill=0;endArrow=none;endFill=0;entryX=1;entryY=0.5;entryDx=0;entryDy=0;exitX=0.072;exitY=1.005;exitDx=0;exitDy=0;exitPerimeter=0;" edge="1" parent="1" source="25" target="35">
                    <mxGeometry relative="1" as="geometry">
                        <mxPoint x="320" y="380" as="targetPoint"/>
                        <Array as="points">
                            <mxPoint x="380" y="484"/>
                        </Array>
                    </mxGeometry>
                </mxCell>
                <mxCell id="60" style="edgeStyle=none;html=1;strokeColor=#FFFFFF;startArrow=none;startFill=0;endArrow=none;endFill=0;entryX=0.379;entryY=0.004;entryDx=0;entryDy=0;entryPerimeter=0;" edge="1" parent="1" source="22" target="26">
                    <mxGeometry relative="1" as="geometry">
                        <Array as="points">
                            <mxPoint x="590" y="230"/>
                        </Array>
                    </mxGeometry>
                </mxCell>
                <mxCell id="22" value="Aerolinea" style="swimlane;fontStyle=1;align=center;verticalAlign=top;childLayout=stackLayout;horizontal=1;startSize=26;horizontalStack=0;resizeParent=1;resizeParentMax=0;resizeLast=0;collapsible=1;marginBottom=0;fillColor=#60a917;fontColor=#ffffff;strokeColor=#2D7600;" vertex="1" parent="1">
                    <mxGeometry x="370" y="25" width="160" height="170" as="geometry"/>
                </mxCell>
                <mxCell id="24" value="" style="line;strokeWidth=1;fillColor=none;align=left;verticalAlign=middle;spacingTop=-1;spacingLeft=3;spacingRight=3;rotatable=0;labelPosition=right;points=[];portConstraint=eastwest;strokeColor=inherit;" vertex="1" parent="22">
                    <mxGeometry y="26" width="160" height="8" as="geometry"/>
                </mxCell>
                <mxCell id="23" value="nombre: String" style="text;strokeColor=#2D7600;fillColor=#60a917;align=left;verticalAlign=top;spacingLeft=4;spacingRight=4;overflow=hidden;rotatable=0;points=[[0,0.5],[1,0.5]];portConstraint=eastwest;fontColor=#ffffff;" vertex="1" parent="22">
                    <mxGeometry y="34" width="160" height="36" as="geometry"/>
                </mxCell>
                <mxCell id="25" value="Public Aerolinea( )&#10;progrmarVuelos( )&#10;ObtenerTotalVuelos( )&#10;vuelosProgramados( )&#10;vuelosOperados( )&#10;vuelosCancelados( )" style="text;strokeColor=#2D7600;fillColor=#60a917;align=left;verticalAlign=top;spacingLeft=4;spacingRight=4;overflow=hidden;rotatable=0;points=[[0,0.5],[1,0.5]];portConstraint=eastwest;fontColor=#ffffff;" vertex="1" parent="22">
                    <mxGeometry y="70" width="160" height="100" as="geometry"/>
                </mxCell>
                <mxCell id="52" style="edgeStyle=none;html=1;entryX=0.75;entryY=1;entryDx=0;entryDy=0;strokeColor=#4D4D4D;startArrow=none;startFill=0;endArrow=diamondThin;endFill=1;" edge="1" parent="1" source="26" target="10">
                    <mxGeometry relative="1" as="geometry">
                        <Array as="points">
                            <mxPoint x="610" y="220"/>
                            <mxPoint x="170" y="220"/>
                        </Array>
                    </mxGeometry>
                </mxCell>
                <mxCell id="26" value="Avion" style="swimlane;fontStyle=1;align=center;verticalAlign=top;childLayout=stackLayout;horizontal=1;startSize=26;horizontalStack=0;resizeParent=1;resizeParentMax=0;resizeLast=0;collapsible=1;marginBottom=0;fillColor=#60a917;fontColor=#ffffff;strokeColor=#2D7600;" vertex="1" parent="1">
                    <mxGeometry x="530" y="420" width="160" height="126" as="geometry"/>
                </mxCell>
                <mxCell id="28" value="" style="line;strokeWidth=1;fillColor=none;align=left;verticalAlign=middle;spacingTop=-1;spacingLeft=3;spacingRight=3;rotatable=0;labelPosition=right;points=[];portConstraint=eastwest;strokeColor=inherit;" vertex="1" parent="26">
                    <mxGeometry y="26" width="160" height="8" as="geometry"/>
                </mxCell>
                <mxCell id="27" value="capacidad: int&#10;marca: String&#10;referencia: String&#10;" style="text;strokeColor=#2D7600;fillColor=#60a917;align=left;verticalAlign=top;spacingLeft=4;spacingRight=4;overflow=hidden;rotatable=0;points=[[0,0.5],[1,0.5]];portConstraint=eastwest;fontColor=#ffffff;" vertex="1" parent="26">
                    <mxGeometry y="34" width="160" height="66" as="geometry"/>
                </mxCell>
                <mxCell id="29" value="Public Avion( )" style="text;strokeColor=#2D7600;fillColor=#60a917;align=left;verticalAlign=top;spacingLeft=4;spacingRight=4;overflow=hidden;rotatable=0;points=[[0,0.5],[1,0.5]];portConstraint=eastwest;fontColor=#ffffff;" vertex="1" parent="26">
                    <mxGeometry y="100" width="160" height="26" as="geometry"/>
                </mxCell>
                <mxCell id="58" style="edgeStyle=none;html=1;strokeColor=#FFFFFF;startArrow=none;startFill=0;endArrow=none;endFill=0;" edge="1" parent="1" source="30">
                    <mxGeometry relative="1" as="geometry">
                        <mxPoint x="480" y="200" as="targetPoint"/>
                    </mxGeometry>
                </mxCell>
                <mxCell id="30" value="Piloto" style="swimlane;fontStyle=1;align=center;verticalAlign=top;childLayout=stackLayout;horizontal=1;startSize=26;horizontalStack=0;resizeParent=1;resizeParentMax=0;resizeLast=0;collapsible=1;marginBottom=0;fillColor=#60a917;fontColor=#ffffff;strokeColor=#2D7600;" vertex="1" parent="1">
                    <mxGeometry x="400" y="240" width="160" height="150" as="geometry"/>
                </mxCell>
                <mxCell id="32" value="" style="line;strokeWidth=1;fillColor=none;align=left;verticalAlign=middle;spacingTop=-1;spacingLeft=3;spacingRight=3;rotatable=0;labelPosition=right;points=[];portConstraint=eastwest;strokeColor=inherit;" vertex="1" parent="30">
                    <mxGeometry y="26" width="160" height="8" as="geometry"/>
                </mxCell>
                <mxCell id="31" value="nombre: String&#10;identificacion: String&#10;Licencia: String" style="text;strokeColor=#2D7600;fillColor=#60a917;align=left;verticalAlign=top;spacingLeft=4;spacingRight=4;overflow=hidden;rotatable=0;points=[[0,0.5],[1,0.5]];portConstraint=eastwest;fontColor=#ffffff;" vertex="1" parent="30">
                    <mxGeometry y="34" width="160" height="66" as="geometry"/>
                </mxCell>
                <mxCell id="33" value="Public Piloto( )&#10;verVuelos( )" style="text;strokeColor=#2D7600;fillColor=#60a917;align=left;verticalAlign=top;spacingLeft=4;spacingRight=4;overflow=hidden;rotatable=0;points=[[0,0.5],[1,0.5]];portConstraint=eastwest;fontColor=#ffffff;" vertex="1" parent="30">
                    <mxGeometry y="100" width="160" height="50" as="geometry"/>
                </mxCell>
                <mxCell id="54" style="edgeStyle=none;html=1;strokeColor=#4D4D4D;startArrow=diamondThin;startFill=1;endArrow=none;endFill=0;" edge="1" parent="1" source="34">
                    <mxGeometry relative="1" as="geometry">
                        <mxPoint x="760" y="390" as="targetPoint"/>
                        <Array as="points">
                            <mxPoint x="160" y="600"/>
                            <mxPoint x="760" y="600"/>
                        </Array>
                    </mxGeometry>
                </mxCell>
                <mxCell id="34" value="Aeropuerto" style="swimlane;fontStyle=1;align=center;verticalAlign=top;childLayout=stackLayout;horizontal=1;startSize=26;horizontalStack=0;resizeParent=1;resizeParentMax=0;resizeLast=0;collapsible=1;marginBottom=0;fillColor=#60a917;fontColor=#ffffff;strokeColor=#2D7600;" vertex="1" parent="1">
                    <mxGeometry x="80" y="432" width="160" height="96" as="geometry"/>
                </mxCell>
                <mxCell id="36" value="" style="line;strokeWidth=1;fillColor=none;align=left;verticalAlign=middle;spacingTop=-1;spacingLeft=3;spacingRight=3;rotatable=0;labelPosition=right;points=[];portConstraint=eastwest;strokeColor=inherit;" vertex="1" parent="34">
                    <mxGeometry y="26" width="160" height="8" as="geometry"/>
                </mxCell>
                <mxCell id="35" value="nombre: String&#10;" style="text;strokeColor=#2D7600;fillColor=#60a917;align=left;verticalAlign=top;spacingLeft=4;spacingRight=4;overflow=hidden;rotatable=0;points=[[0,0.5],[1,0.5]];portConstraint=eastwest;fontColor=#ffffff;" vertex="1" parent="34">
                    <mxGeometry y="34" width="160" height="36" as="geometry"/>
                </mxCell>
                <mxCell id="37" value="Public Aeropuerto( )" style="text;strokeColor=#2D7600;fillColor=#60a917;align=left;verticalAlign=top;spacingLeft=4;spacingRight=4;overflow=hidden;rotatable=0;points=[[0,0.5],[1,0.5]];portConstraint=eastwest;fontColor=#ffffff;" vertex="1" parent="34">
                    <mxGeometry y="70" width="160" height="26" as="geometry"/>
                </mxCell>
                <mxCell id="53" style="edgeStyle=none;html=1;strokeColor=#4D4D4D;startArrow=none;startFill=0;endArrow=diamondThin;endFill=1;" edge="1" parent="1" source="38">
                    <mxGeometry relative="1" as="geometry">
                        <mxPoint x="700" y="200" as="targetPoint"/>
                    </mxGeometry>
                </mxCell>
                <mxCell id="38" value="Ubicacion" style="swimlane;fontStyle=1;align=center;verticalAlign=top;childLayout=stackLayout;horizontal=1;startSize=26;horizontalStack=0;resizeParent=1;resizeParentMax=0;resizeLast=0;collapsible=1;marginBottom=0;fillColor=#60a917;fontColor=#ffffff;strokeColor=#2D7600;" vertex="1" parent="1">
                    <mxGeometry x="620" y="247" width="160" height="136" as="geometry"/>
                </mxCell>
                <mxCell id="40" value="" style="line;strokeWidth=1;fillColor=none;align=left;verticalAlign=middle;spacingTop=-1;spacingLeft=3;spacingRight=3;rotatable=0;labelPosition=right;points=[];portConstraint=eastwest;strokeColor=inherit;" vertex="1" parent="38">
                    <mxGeometry y="26" width="160" height="8" as="geometry"/>
                </mxCell>
                <mxCell id="39" value="Latitud: String&#10;Longitud: String &#10;Ciudad: String&#10;Direccion: String" style="text;strokeColor=#2D7600;fillColor=#60a917;align=left;verticalAlign=top;spacingLeft=4;spacingRight=4;overflow=hidden;rotatable=0;points=[[0,0.5],[1,0.5]];portConstraint=eastwest;fontColor=#ffffff;" vertex="1" parent="38">
                    <mxGeometry y="34" width="160" height="76" as="geometry"/>
                </mxCell>
                <mxCell id="41" value="Public Ubicacion( )" style="text;strokeColor=#2D7600;fillColor=#60a917;align=left;verticalAlign=top;spacingLeft=4;spacingRight=4;overflow=hidden;rotatable=0;points=[[0,0.5],[1,0.5]];portConstraint=eastwest;fontColor=#ffffff;" vertex="1" parent="38">
                    <mxGeometry y="110" width="160" height="26" as="geometry"/>
                </mxCell>
                <mxCell id="46" style="edgeStyle=none;html=1;endArrow=none;endFill=0;entryX=-0.006;entryY=0.205;entryDx=0;entryDy=0;entryPerimeter=0;strokeColor=#4D4D4D;startArrow=diamondThin;startFill=1;" edge="1" parent="1" source="11" target="25">
                    <mxGeometry relative="1" as="geometry">
                        <mxPoint x="350" y="114" as="targetPoint"/>
                        <Array as="points">
                            <mxPoint x="340" y="116"/>
                        </Array>
                    </mxGeometry>
                </mxCell>
                <mxCell id="49" value="" style="edgeStyle=none;html=1;strokeColor=#4D4D4D;startArrow=none;startFill=0;endArrow=diamondThin;endFill=1;exitX=0.004;exitY=0.794;exitDx=0;exitDy=0;exitPerimeter=0;" edge="1" parent="1" source="33">
                    <mxGeometry relative="1" as="geometry">
                        <mxPoint x="80" y="210" as="targetPoint"/>
                        <Array as="points">
                            <mxPoint x="310" y="380"/>
                            <mxPoint x="80" y="380"/>
                        </Array>
                    </mxGeometry>
                </mxCell>
                <mxCell id="50" style="edgeStyle=none;html=1;entryX=0;entryY=1;entryDx=0;entryDy=0;strokeColor=#4D4D4D;startArrow=none;startFill=0;endArrow=diamondThin;endFill=1;exitX=0;exitY=0.5;exitDx=0;exitDy=0;" edge="1" parent="1" source="35" target="10">
                    <mxGeometry relative="1" as="geometry">
                        <Array as="points">
                            <mxPoint x="50" y="484"/>
                        </Array>
                    </mxGeometry>
                </mxCell>
                <mxCell id="59" value="" style="edgeStyle=none;html=1;exitX=-0.017;exitY=0.638;exitDx=0;exitDy=0;entryX=1.015;entryY=0.856;entryDx=0;entryDy=0;entryPerimeter=0;strokeColor=#FFFFFF;startArrow=none;startFill=0;endArrow=none;endFill=0;exitPerimeter=0;align=left;fontStyle=4" edge="1" parent="1" source="25" target="11">
                    <mxGeometry relative="1" as="geometry"/>
                </mxCell>
                <mxCell id="61" value="1-*" style="text;html=1;align=center;verticalAlign=middle;resizable=0;points=[];autosize=1;strokeColor=none;fillColor=none;" vertex="1" parent="1">
                    <mxGeometry x="205" y="130" width="40" height="30" as="geometry"/>
                </mxCell>
                <mxCell id="62" value="1" style="text;html=1;align=center;verticalAlign=middle;resizable=0;points=[];autosize=1;strokeColor=none;fillColor=none;" vertex="1" parent="1">
                    <mxGeometry x="340" y="130" width="30" height="30" as="geometry"/>
                </mxCell>
                <mxCell id="63" value="1" style="text;html=1;align=center;verticalAlign=middle;resizable=0;points=[];autosize=1;strokeColor=none;fillColor=none;" vertex="1" parent="1">
                    <mxGeometry x="235" y="455" width="30" height="30" as="geometry"/>
                </mxCell>
                <mxCell id="64" value="1-*" style="text;html=1;align=center;verticalAlign=middle;resizable=0;points=[];autosize=1;strokeColor=none;fillColor=none;" vertex="1" parent="1">
                    <mxGeometry x="335" y="190" width="40" height="30" as="geometry"/>
                </mxCell>
                <mxCell id="66" value="1-*" style="text;html=1;align=center;verticalAlign=middle;resizable=0;points=[];autosize=1;strokeColor=none;fillColor=none;" vertex="1" parent="1">
                    <mxGeometry x="480" y="217" width="40" height="30" as="geometry"/>
                </mxCell>
                <mxCell id="67" value="1" style="text;html=1;align=center;verticalAlign=middle;resizable=0;points=[];autosize=1;strokeColor=none;fillColor=none;" vertex="1" parent="1">
                    <mxGeometry x="480" y="190" width="30" height="30" as="geometry"/>
                </mxCell>
                <mxCell id="69" value="1" style="text;html=1;align=center;verticalAlign=middle;resizable=0;points=[];autosize=1;strokeColor=none;fillColor=none;" vertex="1" parent="1">
                    <mxGeometry x="205" y="535" width="30" height="30" as="geometry"/>
                </mxCell>
                <mxCell id="70" value="1-*" style="text;html=1;align=center;verticalAlign=middle;resizable=0;points=[];autosize=1;strokeColor=none;fillColor=none;" vertex="1" parent="1">
                    <mxGeometry x="740" y="95" width="40" height="30" as="geometry"/>
                </mxCell>
                <mxCell id="71" value="1-*" style="text;html=1;align=center;verticalAlign=middle;resizable=0;points=[];autosize=1;strokeColor=none;fillColor=none;" vertex="1" parent="1">
                    <mxGeometry x="540" y="395" width="40" height="30" as="geometry"/>
                </mxCell>
                <mxCell id="72" value="1" style="text;html=1;align=center;verticalAlign=middle;resizable=0;points=[];autosize=1;strokeColor=none;fillColor=none;" vertex="1" parent="1">
                    <mxGeometry x="530" y="160" width="30" height="30" as="geometry"/>
                </mxCell>
            </root>
        </mxGraphModel>
    </diagram>
</mxfile>